<?xml version="1.0" encoding="UTF-8"?>
<svg width="1024px" height="1024px" viewBox="0 0 1024 1024" version="1.1" xmlns="http://www.w3.org/2000/svg" xmlns:xlink="http://www.w3.org/1999/xlink">
    <title>Opptrix-new-logo</title>
    <defs>
        <path d="M719.349762,241.724837 C724.053815,244.121671 727.878329,247.946185 730.275163,252.650238 C733,257.998031 733,264.998687 733,279 L733,480 C733,494.001313 733,501.001969 730.275163,506.349762 C727.878329,511.053815 724.053815,514.878329 719.349762,517.275163 C714.001969,520 707.001313,520 693,520 L673,520 C658.998687,520 651.998031,520 646.650238,517.275163 C641.946185,514.878329 638.121671,511.053815 635.724837,506.349762 C633,501.001969 633,494.001313 633,480 L633,279 C633,264.998687 633,257.998031 635.724837,252.650238 C638.121671,247.946185 641.946185,244.121671 646.650238,241.724837 C651.998031,239 658.998687,239 673,239 L693,239 C707.001313,239 714.001969,239 719.349762,241.724837 Z" id="path-1"></path>
    </defs>
    <g id="页面-1" stroke="none" stroke-width="1" fill="none" fill-rule="evenodd">
        <g id="Opptrix-new-logo" xlink:href="#path-1" fill="#FF2400">
            <path d="M673,239 L693,239 C707.001313,239 714.001969,239 719.349762,241.724837 C724.053815,244.121671 727.878329,247.946185 730.275163,252.650238 C733,257.998031 733,264.998687 733,279 L733,480 C733,494.001313 733,501.001969 730.275163,506.349762 C727.878329,511.053815 724.053815,514.878329 719.349762,517.275163 C714.001969,520 707.001313,520 693,520 L673,520 C658.998687,520 651.998031,520 646.650238,517.275163 C641.946185,514.878329 638.121671,511.053815 635.724837,506.349762 C633,501.001969 633,494.001313 633,480 L633,279 C633,264.998687 633,257.998031 635.724837,252.650238 C638.121671,247.946185 641.946185,244.121671 646.650238,241.724837 C651.998031,239 658.998687,239 673,239 Z" id="矩形"></path>
        </g>
    </g>
</svg>