<?xml version="1.0" encoding="UTF-8"?>
<svg width="1024px" height="1024px" viewBox="0 0 1024 1024" version="1.1" xmlns="http://www.w3.org/2000/svg" xmlns:xlink="http://www.w3.org/1999/xlink">
    <title>Opptrix-new-logo</title>
    <defs>
        <path d="M444.349762,790.724837 C449.53328,793.365971 453.633419,797.732175 455.943866,803.071303 C458,807.822749 458,813.881833 458,826 C458,838.118167 458,844.177251 455.943866,848.928697 C453.633419,854.267825 449.53328,858.634029 444.349762,861.275163 C439.001969,864 432.001313,864 418,864 L398,864 C383.998687,864 376.998031,864 371.650238,861.275163 C366.46672,858.634029 362.366581,854.267825 360.056134,848.928697 C358,844.177251 358,838.118167 358,826 C358,813.881833 358,807.822749 360.056134,803.071303 C362.366581,797.732175 366.46672,793.365971 371.650238,790.724837 C376.998031,788 383.998687,788 398,788 L418,788 C432.001313,788 439.001969,788 444.349762,790.724837 Z" id="path-1"></path>
    </defs>
    <g id="页面-1" stroke="none" stroke-width="1" fill="none" fill-rule="evenodd">
        <g id="Opptrix-new-logo" xlink:href="#path-1" fill="#FF2400">
            <path d="M398,788 L418,788 C432.001313,788 439.001969,788 444.349762,790.724837 C449.53328,793.365971 453.633419,797.732175 455.943866,803.071303 C458,807.822749 458,813.881833 458,826 C458,838.118167 458,844.177251 455.943866,848.928697 C453.633419,854.267825 449.53328,858.634029 444.349762,861.275163 C439.001969,864 432.001313,864 418,864 L398,864 C383.998687,864 376.998031,864 371.650238,861.275163 C366.46672,858.634029 362.366581,854.267825 360.056134,848.928697 C358,844.177251 358,838.118167 358,826 C358,813.881833 358,807.822749 360.056134,803.071303 C362.366581,797.732175 366.46672,793.365971 371.650238,790.724837 C376.998031,788 383.998687,788 398,788 Z" id="矩形"></path>
        </g>
    </g>
</svg>